<svg width="20" height="20" viewBox="0 0 20 20" fill="none" xmlns="http://www.w3.org/2000/svg">
<rect width="20" height="20" rx="4" fill="#E5493A"/>
<path d="M15.6875 10C15.6875 11.1249 15.3539 12.2245 14.729 13.1598C14.104 14.0951 13.2158 14.8241 12.1765 15.2546C11.1373 15.685 9.99369 15.7977 8.89043 15.5782C7.78716 15.3588 6.77374 14.8171 5.97833 14.0217C5.18292 13.2263 4.64124 12.2128 4.42179 11.1096C4.20233 10.0063 4.31496 8.86274 4.74544 7.82349C5.17591 6.78423 5.90489 5.89597 6.8402 5.27102C7.7755 4.64607 8.87512 4.3125 10 4.3125C11.5078 4.31438 12.9534 4.9142 14.0196 5.98041C15.0858 7.04661 15.6856 8.49216 15.6875 10Z" fill="white"/>
</svg>
