<svg width="20" height="20" viewBox="0 0 20 20" fill="none" xmlns="http://www.w3.org/2000/svg">
<rect width="20" height="20" rx="4" fill="#586AEA"/>
<path d="M14.6949 9.86108L8.56995 16.4236C8.50504 16.4929 8.41936 16.5391 8.32585 16.5554C8.23233 16.5717 8.13605 16.5572 8.05153 16.514C7.96701 16.4707 7.89884 16.4012 7.8573 16.3159C7.81577 16.2305 7.80312 16.1339 7.82128 16.0408L8.623 12.0305L5.47136 10.8471C5.40367 10.8218 5.34331 10.7801 5.29567 10.7257C5.24803 10.6714 5.21459 10.6061 5.19834 10.5357C5.18209 10.4653 5.18353 10.3919 5.20255 10.3222C5.22156 10.2525 5.25755 10.1886 5.30729 10.1362L11.4323 3.57366C11.4972 3.50439 11.5829 3.45811 11.6764 3.4418C11.7699 3.4255 11.8662 3.44005 11.9507 3.48327C12.0352 3.52649 12.1034 3.59602 12.1449 3.68138C12.1865 3.76674 12.1991 3.86329 12.181 3.95647L11.3771 7.97108L14.5287 9.15288C14.5959 9.17837 14.6558 9.22001 14.703 9.27413C14.7503 9.32826 14.7835 9.39319 14.7997 9.46319C14.8159 9.5332 14.8147 9.60612 14.796 9.67552C14.7774 9.74491 14.7419 9.80864 14.6928 9.86108H14.6949Z" fill="white"/>
</svg>
