<svg xmlns="http://www.w3.org/2000/svg" width="18" height="16" viewBox="0 0 18 16" fill="none">
  <path d="M14.6147 2.75H2.7064C2.49106 2.75 2.28454 2.82902 2.13228 2.96967C1.98001 3.11032 1.89447 3.30109 1.89447 3.5V13C1.89447 13.3315 2.03704 13.6495 2.29082 13.8839C2.54459 14.1183 2.88879 14.25 3.24768 14.25H5.9541C6.313 14.25 6.65719 14.1183 6.91097 13.8839C7.16474 13.6495 7.30731 13.3315 7.30731 13V10.25H10.0137V11C10.0137 11.3315 10.1563 11.6495 10.4101 11.8839C10.6639 12.1183 11.0081 12.25 11.3669 12.25H14.0734C14.4323 12.25 14.7765 12.1183 15.0302 11.8839C15.284 11.6495 15.4266 11.3315 15.4266 11V3.5C15.4266 3.30109 15.341 3.11032 15.1888 2.96967C15.0365 2.82902 14.83 2.75 14.6147 2.75ZM13.8027 6.75H11.6376V4.25H13.8027V6.75ZM5.68346 4.25V6.75H3.51832V4.25H5.68346ZM5.68346 12.75H3.51832V8.25H5.68346V12.75ZM7.30731 8.75V4.25H10.0137V8.75H7.30731ZM11.6376 10.75V8.25H13.8027V10.75H11.6376Z" fill="#727578"/>
</svg>