<svg xmlns="http://www.w3.org/2000/svg" width="16" height="16" viewBox="0 0 16 16" fill="none">
  <path d="M13.7319 7.33628C13.7053 7.21739 13.6501 7.10678 13.5712 7.014C13.4922 6.92121 13.3919 6.84906 13.2788 6.80378L10.08 5.5244L10.7419 1.11128C10.7662 0.952808 10.7391 0.790722 10.6645 0.648795C10.5899 0.506868 10.4718 0.39257 10.3276 0.322666C10.1833 0.252763 10.0204 0.230933 9.8628 0.260378C9.70521 0.289824 9.5612 0.368995 9.45189 0.486279L2.45189 7.98628C2.36868 8.07539 2.30845 8.18344 2.27642 8.30107C2.24438 8.4187 2.2415 8.54237 2.26804 8.66137C2.29457 8.78036 2.34971 8.89109 2.42868 8.98398C2.50766 9.07686 2.60809 9.14909 2.72127 9.1944L5.92002 10.4738L5.25814 14.8888C5.23384 15.0473 5.26097 15.2093 5.33554 15.3513C5.4101 15.4932 5.52819 15.6075 5.67247 15.6774C5.81675 15.7473 5.97963 15.7691 6.13723 15.7397C6.29482 15.7102 6.43883 15.6311 6.54814 15.5138L13.5481 8.01378C13.6317 7.92441 13.6921 7.81595 13.7242 7.69785C13.7562 7.57976 13.7589 7.45563 13.7319 7.33628ZM7.10002 12.7219L7.49189 10.1113C7.51693 9.94419 7.48482 9.77354 7.40077 9.62698C7.31671 9.48042 7.18563 9.36654 7.02877 9.30378L4.29627 8.21065L8.90002 3.27815L8.50814 5.88878C8.4831 6.05587 8.51521 6.22651 8.59926 6.37308C8.68332 6.51964 8.8144 6.63352 8.97127 6.69628L11.7038 7.7894L7.10002 12.7219Z" fill="#727578"/>
</svg>