<svg width="20" height="20" viewBox="0 0 20 20" fill="none" xmlns="http://www.w3.org/2000/svg">
<rect width="20" height="20" rx="4" fill="#059669"/>
<path d="M13.0625 4.75H6.9375C6.70544 4.75 6.48288 4.84219 6.31878 5.00628C6.15469 5.17038 6.0625 5.39294 6.0625 5.625V15.25C6.06254 15.3281 6.08347 15.4047 6.12313 15.472C6.16278 15.5392 6.21971 15.5947 6.28801 15.6325C6.35631 15.6703 6.43349 15.6892 6.51154 15.6871C6.58959 15.6851 6.66567 15.6622 6.73187 15.6208L10 13.5782L13.2687 15.6208C13.3349 15.662 13.4109 15.6848 13.4889 15.6868C13.5668 15.6888 13.6439 15.6699 13.7121 15.6321C13.7803 15.5943 13.8372 15.5389 13.8768 15.4717C13.9165 15.4045 13.9374 15.328 13.9375 15.25V5.625C13.9375 5.39294 13.8453 5.17038 13.6812 5.00628C13.5171 4.84219 13.2946 4.75 13.0625 4.75Z" fill="white"/>
</svg>
