<svg width="20" height="20" viewBox="0 0 20 20" fill="none" xmlns="http://www.w3.org/2000/svg">
<rect width="20" height="20" rx="4" fill="#4BADE8"/>
<path d="M16.306 7.97163L9.28413 14.9935C9.12005 15.1575 8.89758 15.2496 8.66561 15.2496C8.43365 15.2496 8.21118 15.1575 8.0471 14.9935L4.13038 11.056C3.96658 10.8919 3.87457 10.6696 3.87457 10.4378C3.87457 10.2059 3.96658 9.98357 4.13038 9.81952L5.22413 8.72577C5.38812 8.56247 5.61012 8.47078 5.84155 8.47078C6.07298 8.47078 6.29498 8.56247 6.45897 8.72577L8.68749 10.887L13.9791 5.66053C14.1431 5.49706 14.3652 5.40527 14.5967 5.40527C14.8283 5.40527 15.0504 5.49706 15.2144 5.66053L16.3055 6.72913C16.3875 6.81043 16.4526 6.90718 16.4971 7.01379C16.5416 7.1204 16.5645 7.23475 16.5646 7.35026C16.5646 7.46577 16.5418 7.58015 16.4974 7.6868C16.453 7.79344 16.388 7.89025 16.306 7.97163Z" fill="white"/>
</svg>
